<mxfile host="app.diagrams.net" agent="Mozilla/5.0 (Macintosh; Intel Mac OS X 10_15_7) AppleWebKit/605.1.15 (KHTML, like Gecko) Version/18.3.1 Safari/605.1.15" version="26.2.14">
  <diagram name="Diagram aktywności - Rezerwacja wizyty" id="1p1DwT5CmppqweS-7HKq">
    <mxGraphModel dx="1306" dy="858" grid="1" gridSize="10" guides="1" tooltips="1" connect="1" arrows="1" fold="1" page="1" pageScale="1" pageWidth="1280" pageHeight="640" math="0" shadow="0">
      <root>
        <mxCell id="0" />
        <mxCell id="1" parent="0" />
        <mxCell id="DMcBa92X8gXn6NMvKCyO-1" style="shape=ellipse;whiteSpace=wrap;html=1;fillColor=#000000;fontSize=24;" vertex="1" parent="1">
          <mxGeometry x="640" y="20" width="30" height="30" as="geometry" />
        </mxCell>
        <mxCell id="DMcBa92X8gXn6NMvKCyO-2" value="Wybór usługi i salonu" style="rounded=1;whiteSpace=wrap;html=1;fillColor=#dae8fc;fontSize=24;" vertex="1" parent="1">
          <mxGeometry x="200" y="20" width="260" height="105" as="geometry" />
        </mxCell>
        <mxCell id="DMcBa92X8gXn6NMvKCyO-3" value="Wybór daty i godziny" style="rounded=1;whiteSpace=wrap;html=1;fillColor=#dae8fc;fontSize=24;" vertex="1" parent="1">
          <mxGeometry x="880" y="70" width="290" height="120" as="geometry" />
        </mxCell>
        <mxCell id="DMcBa92X8gXn6NMvKCyO-4" value="Potwierdzenie rezerwacji" style="rounded=1;whiteSpace=wrap;html=1;fillColor=#d5e8d4;fontSize=24;" vertex="1" parent="1">
          <mxGeometry x="410" y="180" width="230" height="80" as="geometry" />
        </mxCell>
        <mxCell id="DMcBa92X8gXn6NMvKCyO-5" value="Generowanie pliku .ics" style="rounded=1;whiteSpace=wrap;html=1;fillColor=#fff2cc;fontSize=24;" vertex="1" parent="1">
          <mxGeometry x="60" y="330" width="270" height="100" as="geometry" />
        </mxCell>
        <mxCell id="DMcBa92X8gXn6NMvKCyO-6" value="Wysyłka powiadomienia push" style="rounded=1;whiteSpace=wrap;html=1;fillColor=#fff2cc;fontSize=24;" vertex="1" parent="1">
          <mxGeometry x="760" y="260" width="300" height="90" as="geometry" />
        </mxCell>
        <mxCell id="DMcBa92X8gXn6NMvKCyO-7" value="Wysyłka SMS przypomnienia (np. 24h przed)" style="rounded=1;whiteSpace=wrap;html=1;fillColor=#fff2cc;fontSize=24;" vertex="1" parent="1">
          <mxGeometry x="450" y="400" width="310" height="110" as="geometry" />
        </mxCell>
        <mxCell id="DMcBa92X8gXn6NMvKCyO-8" style="shape=ellipse;whiteSpace=wrap;html=1;fillColor=#000000;fontSize=24;" vertex="1" parent="1">
          <mxGeometry x="590" y="580" width="30" height="30" as="geometry" />
        </mxCell>
        <mxCell id="DMcBa92X8gXn6NMvKCyO-9" style="endArrow=block;fontSize=24;" edge="1" parent="1" source="DMcBa92X8gXn6NMvKCyO-1" target="DMcBa92X8gXn6NMvKCyO-2">
          <mxGeometry relative="1" as="geometry" />
        </mxCell>
        <mxCell id="DMcBa92X8gXn6NMvKCyO-10" style="endArrow=block;fontSize=24;" edge="1" parent="1" source="DMcBa92X8gXn6NMvKCyO-2" target="DMcBa92X8gXn6NMvKCyO-3">
          <mxGeometry relative="1" as="geometry" />
        </mxCell>
        <mxCell id="DMcBa92X8gXn6NMvKCyO-11" style="endArrow=block;fontSize=24;" edge="1" parent="1" source="DMcBa92X8gXn6NMvKCyO-3" target="DMcBa92X8gXn6NMvKCyO-4">
          <mxGeometry relative="1" as="geometry" />
        </mxCell>
        <mxCell id="DMcBa92X8gXn6NMvKCyO-12" style="endArrow=block;fontSize=24;" edge="1" parent="1" source="DMcBa92X8gXn6NMvKCyO-4" target="DMcBa92X8gXn6NMvKCyO-5">
          <mxGeometry relative="1" as="geometry" />
        </mxCell>
        <mxCell id="DMcBa92X8gXn6NMvKCyO-13" style="endArrow=block;fontSize=24;" edge="1" parent="1" source="DMcBa92X8gXn6NMvKCyO-4" target="DMcBa92X8gXn6NMvKCyO-6">
          <mxGeometry relative="1" as="geometry" />
        </mxCell>
        <mxCell id="DMcBa92X8gXn6NMvKCyO-14" style="endArrow=block;fontSize=24;" edge="1" parent="1" source="DMcBa92X8gXn6NMvKCyO-5" target="DMcBa92X8gXn6NMvKCyO-7">
          <mxGeometry relative="1" as="geometry" />
        </mxCell>
        <mxCell id="DMcBa92X8gXn6NMvKCyO-15" style="endArrow=block;fontSize=24;" edge="1" parent="1" source="DMcBa92X8gXn6NMvKCyO-6" target="DMcBa92X8gXn6NMvKCyO-7">
          <mxGeometry relative="1" as="geometry" />
        </mxCell>
        <mxCell id="DMcBa92X8gXn6NMvKCyO-16" style="endArrow=block;fontSize=24;" edge="1" parent="1" source="DMcBa92X8gXn6NMvKCyO-7" target="DMcBa92X8gXn6NMvKCyO-8">
          <mxGeometry relative="1" as="geometry" />
        </mxCell>
      </root>
    </mxGraphModel>
  </diagram>
</mxfile>
